<svg width="32" height="32" viewBox="0 0 32 32" fill="none" xmlns="http://www.w3.org/2000/svg">
<path d="M16 0C12.8355 0 9.74205 0.938383 7.11087 2.69649C4.47968 4.45459 2.42892 6.95345 1.21792 9.87706C0.00691736 12.8007 -0.309936 16.0177 0.307427 19.1214C0.924791 22.2251 2.44864 25.0761 4.68628 27.3137C6.92392 29.5513 9.77485 31.0752 12.8785 31.6926C15.9822 32.3099 19.1993 31.9931 22.1229 30.7821C25.0465 29.5711 27.5454 27.5203 29.3035 24.8891C31.0616 22.2579 32 19.1645 32 16C31.9954 11.7579 30.3082 7.69095 27.3086 4.69136C24.309 1.69177 20.242 0.00458811 16 0Z" fill="black" fill-opacity="0.46"/>
</svg>
